Coordinates
version=1
nRows=16
nColumns=36
inDegrees=yes

Units are S.I. units (second, meters, Newtons, ...)
If the header above contains a line with 'inDegrees', this indicates whether rotational values are in degrees (yes) or radians (no).

endheader
time	pelvis_tilt	pelvis_list	pelvis_rotation	pelvis_tx	pelvis_ty	pelvis_tz	hip_flexion_r	hip_adduction_r	hip_rotation_r	knee_angle_r	knee_angle_r_beta	ankle_angle_r	subtalar_angle_r	mtp_angle_r	hip_flexion_l	hip_adduction_l	hip_rotation_l	knee_angle_l	knee_angle_l_beta	ankle_angle_l	subtalar_angle_l	mtp_angle_l	lumbar_extension	lumbar_bending	lumbar_rotation	arm_flex_r	arm_add_r	arm_rot_r	elbow_flex_r	pro_sup_r	arm_flex_l	arm_add_l	arm_rot_l	elbow_flex_l	pro_sup_l
      3.78750000	    -12.45885322	      0.43039485	     -0.76611054	      0.36445474	      0.94957933	     -0.04631472	     24.95964528	     -8.00508330	     -8.06787799	     20.28303889	      0.35400581	     -4.56939801	     -1.80347470	     -7.49999987	     25.41718036	     -5.87792510	    -12.48205680	     22.71827082	      0.39650863	     -5.80748922	     -7.44425960	     -7.49999987	    -10.03126273	      0.78836767	     -0.67197681	    -17.33444060	    -23.09647714	      9.11000907	     72.71016274	     76.68922175	     -9.99460619	    -19.13921384	      6.58309945	     66.75162765	     74.06189027
      3.79166670	    -12.60214320	      0.54550939	     -0.87411850	      0.36156056	      0.94088085	     -0.04523969	     26.00749273	     -8.15650781	     -7.32084055	     21.59795865	      0.37695549	     -1.69261485	     -2.32429523	     -7.49999987	     26.52275270	     -5.57154354	    -11.78502934	     24.59130605	      0.42919926	     -2.70125581	     -8.48638320	     -7.49999987	    -10.27441310	      0.88778772	     -0.90966162	    -15.89522531	    -23.61868049	      8.96606483	     74.35212160	     76.13501024	     -8.96503134	    -19.05116455	      6.88591290	     67.19866446	     73.54226885
      3.79583330	    -12.62040968	      0.64818937	     -0.78935879	      0.35868672	      0.94087992	     -0.04697072	     26.65616925	     -8.43122127	     -7.13154129	     22.44105732	      0.39167034	      0.65848999	     -2.14876322	     -7.49999987	     27.45126047	     -5.12799313	    -11.00953235	     26.08870537	      0.45533381	     -0.44956046	     -9.66418413	     -7.49999987	    -10.93138143	      1.19430901	     -1.25449889	    -14.79565643	    -24.14159401	      8.79396703	     76.77619227	     76.08437586	     -7.43964041	    -18.98653063	      7.70130739	     67.33305551	     73.19070389
      3.80000000	    -12.47083466	      0.67670162	     -0.89739450	      0.35818885	      0.93745049	     -0.04216315	     27.09305495	     -8.27380963	     -6.48836151	     23.21090968	      0.40510680	      2.43814467	     -2.59753474	     -7.49999987	     28.05430502	     -5.05927595	    -10.45274820	     27.30929411	      0.47663710	      1.30176005	    -10.59290143	     -7.49999987	    -11.67501302	      1.17081890	     -1.32837701	    -13.13963861	    -23.97413796	      8.44981467	     77.31157633	     76.25800864	     -5.95233247	    -18.78714554	      7.79154141	     67.51091819	     73.29205213
      3.80416670	    -12.41296994	      0.59674647	     -0.91077858	      0.36177689	      0.93089978	     -0.04319971	     27.54721725	     -8.16265440	     -6.50785368	     24.28342167	      0.42382566	      4.09601009	     -2.98385786	     -7.49999987	     28.64103426	     -5.09291975	     -9.88734938	     28.52651339	      0.49788158	      2.98333006	    -11.17957825	     -7.49999987	    -12.23097509	      1.38838962	     -0.62579094	    -12.80191970	    -23.83562743	      6.52062233	     78.81727174	     82.12417785	     -3.73066992	    -18.65017551	      9.37929175	     66.91665620	     76.06768877
      3.80833330	    -12.33628926	      0.48640886	     -0.96524171	      0.35824652	      0.92255621	     -0.03934209	     28.06730727	     -7.81498860	     -6.08490115	     25.52710248	      0.44553199	      5.80214603	     -3.52724188	     -7.49999987	     29.27956323	     -5.37563573	     -9.53183100	     29.86419525	      0.52122854	      4.56082395	    -11.73665850	     -7.49999987	    -12.75296805	      1.46560930	     -0.75981166	    -11.18904527	    -23.58682299	      6.39194007	     79.32671306	     81.57096762	     -2.54820297	    -18.55971038	      9.34183639	     67.26193395	     75.65293876
      3.81250000	    -11.97271684	      0.20648106	     -1.01402709	      0.35588233	      0.92031100	     -0.03260288	     28.41451387	     -7.15723904	     -5.59640244	     26.99774074	      0.47119947	      7.32573287	     -4.19744902	     -7.49999987	     29.84343355	     -5.90927726	     -8.84560977	     31.36594118	      0.54743895	      5.50309180	    -12.32021702	     -7.49999987	    -13.92997649	      1.61368210	     -0.78446166	     -9.22291862	    -23.12380898	      6.39481334	     79.81848945	     81.68237281	     -0.98339890	    -18.59741656	      9.26282988	     67.45896276	     75.70427633
      3.81666670	    -11.78792768	     -0.08938636	     -1.03551638	      0.35070800	      0.91828684	     -0.03157606	     29.12755005	     -6.56480680	     -5.27173820	     28.58944586	      0.49897996	      8.33093067	     -5.39002820	     -7.49999987	     30.74505363	     -6.54297337	     -8.36973865	     33.13395425	      0.57829660	      6.52903194	    -12.77334150	     -7.49999987	    -15.15442591	      1.77515586	     -1.57483269	     -5.98984381	    -23.13390427	      8.15852926	     80.03730980	     84.50658156	     -0.25774430	    -18.66498168	      8.02279465	     68.93143355	     77.07316627
      3.82083330	    -11.48613953	     -0.42728474	     -1.08419810	      0.34688906	      0.91962148	     -0.03176096	     29.76662548	     -5.95575282	     -4.96968504	     30.12031045	      0.52569859	      8.73837598	     -6.48188652	     -7.49999987	     31.36739016	     -7.11742738	     -7.89981330	     34.43128976	      0.60093937	      7.06674430	    -13.09317487	     -7.49999987	    -16.67985673	      1.97547305	     -1.44560605	     -3.56717281	    -22.62984884	      8.39747574	     80.15535611	     83.68057092	      1.83917838	    -18.52644155	      8.24524824	     69.30424216	     76.43128099
      3.82500000	    -11.24581833	     -0.71842666	     -1.02890415	      0.34870762	      0.91339494	     -0.03447496	     30.56061196	     -5.67221792	     -4.86976853	     32.02520549	      0.55894528	      9.01386476	     -7.85598054	     -7.49999987	     32.11868554	     -7.53914724	     -7.47088215	     36.06186953	      0.62939836	      7.76807496	    -13.50719567	     -7.49999987	    -18.22378231	      2.25762703	     -1.37196246	     -1.30064187	    -22.42748326	      8.78744430	     80.21396769	     83.44453011	      3.67913583	    -18.33514083	      8.69568281	     69.99712308	     76.29802324
      3.82916670	    -10.99488305	     -0.84746675	     -1.02984623	      0.34628688	      0.90818311	     -0.03291570	     31.46490336	     -5.54470075	     -4.62827505	     34.07752364	      0.59476499	      9.60360977	     -8.76532680	     -7.49999987	     32.91384225	     -7.82318932	     -7.16934351	     37.90601454	      0.66158476	      8.45417398	    -14.04570168	     -7.49999987	    -19.62865346	      2.41099956	     -1.35491471	      0.97161200	    -21.96669820	      8.94314691	     80.03263220	     81.99562342	      5.41447943	    -18.23489625	      8.89899570	     70.62673325	     75.18427143
      3.83333330	    -10.84599565	     -0.91843349	     -1.02671512	      0.34546034	      0.90239519	     -0.03359413	     32.58197405	     -5.56554873	     -4.41934546	     36.39669447	      0.63524216	     10.35554261	     -9.59922164	     -7.49999987	     33.88090054	     -7.94631971	     -6.77811303	     39.86282927	      0.69573762	      9.26017147	    -14.46889671	     -7.49999987	    -20.84370598	      2.54670627	     -1.24841308	      2.80888257	    -21.62156926	      8.70619165	     80.11908416	     82.17967916	      7.00698424	    -18.01224247	      8.83867340	     71.33730663	     75.33373863
      3.83750000	    -11.04995779	     -0.83367601	     -1.13094353	      0.34310680	      0.89349277	     -0.03569551	     34.51919710	     -5.78131386	     -3.89090996	     39.41956948	      0.68800128	     10.85785472	    -10.99450892	     -7.49999987	     35.31385002	     -7.91402546	     -6.49498307	     42.11414951	      0.73503057	     10.05661495	    -15.18904469	     -7.49999987	    -21.74337459	      2.70854456	     -1.38615066	      4.77850947	    -21.34616451	      8.38531255	     80.43891089	     88.59525475	      7.72934142	    -17.69692197	      7.78699867	     73.12473689	     80.26832019
      3.84166670	    -11.14608840	     -0.69365380	     -1.11579205	      0.33931759	      0.89368423	     -0.03683300	     36.10504554	     -6.03229718	     -3.44874986	     41.77403717	      0.72909449	     11.08223421	    -11.84966930	     -7.49999987	     36.59546461	     -7.63229601	     -5.94817238	     43.99473224	      0.76785293	     10.31919058	    -16.24512523	     -7.49999987	    -22.84422340	      2.85294816	     -1.21718145	      6.58486220	    -21.13623511	      7.98423475	     80.80208665	     87.70282126	      9.17305100	    -17.35684938	      7.93575491	     74.11464609	     79.43326807
      3.84583330	    -11.13153715	     -0.52103611	     -1.06021074	      0.33584830	      0.89050660	     -0.03779341	     37.52684930	     -6.39199831	     -3.05529675	     44.01235835	      0.76816056	     11.32005308	    -12.65193082	     -7.49999987	     37.80351276	     -7.30912524	     -5.46773892	     45.90159516	      0.80113397	     10.52502651	    -17.34380022	     -7.49999987	    -24.06060413	      2.92744915	     -1.09137599	      8.18641727	    -21.06057791	      7.57718694	     81.34332724	     87.34623304	     10.72257870	    -17.06998450	      8.16168984	     75.19787781	     79.09168343
      3.85000000	    -11.26290425	     -0.29956753	     -1.08232577	      0.33077731	      0.88245962	     -0.03667808	     39.32111568	     -6.55831128	     -2.40731010	     46.30142229	      0.80811227	     11.62880062	    -13.62853662	     -7.49999987	     39.22055865	     -7.01504188	     -5.00848385	     47.78828873	      0.83406298	     11.04332264	    -18.03504877	     -7.49999987	    -25.15124140	      2.79249323	     -0.74891923	      9.52020909	    -20.78816086	      6.30936326	     82.65652353	     90.33514672	     12.65727706	    -16.88647640	      8.24996262	     76.47105506	     82.30428888
